<?xml version="1.0" encoding="UTF-8" standalone="no"?>
<svg
   xmlns:dc="http://purl.org/dc/elements/1.1/"
   xmlns:cc="http://creativecommons.org/ns#"
   xmlns:rdf="http://www.w3.org/1999/02/22-rdf-syntax-ns#"
   xmlns:svg="http://www.w3.org/2000/svg"
   xmlns="http://www.w3.org/2000/svg"
   xmlns:sodipodi="http://sodipodi.sourceforge.net/DTD/sodipodi-0.dtd"
   xmlns:inkscape="http://www.inkscape.org/namespaces/inkscape"
   width="210mm"
   height="297mm"
   viewBox="0 0 210 297"
   version="1.1"
   id="svg8"
   inkscape:version="1.0.1 (3bc2e813f5, 2020-09-07)"
   sodipodi:docname="mit_problem_13.svg"
   inkscape:export-filename="/home/lucasresck/GitHub/lip/images/mit_problem_13.png"
   inkscape:export-xdpi="518.39777"
   inkscape:export-ydpi="518.39777">
  <defs
     id="defs2">
    <rect
       x="97.365043"
       y="57.899483"
       width="13.159242"
       height="6.3507177"
       id="rect4866" />
    <rect
       x="86.906015"
       y="62.147483"
       width="5.5629045"
       height="4.4669258"
       id="rect4847" />
    <marker
       style="overflow:visible;"
       id="marker4045"
       refX="0.0"
       refY="0.0"
       orient="auto"
       inkscape:stockid="Arrow2Lend"
       inkscape:isstock="true">
      <path
         transform="scale(1.1) rotate(180) translate(1,0)"
         d="M 8.7185878,4.0337352 L -2.2072895,0.016013256 L 8.7185884,-4.0017078 C 6.9730900,-1.6296469 6.9831476,1.6157441 8.7185878,4.0337352 z "
         style="fill-rule:evenodd;stroke-width:0.625;stroke-linejoin:round;stroke:#fb8072;stroke-opacity:1;fill:#fb8072;fill-opacity:1"
         id="path4043" />
    </marker>
    <marker
       style="overflow:visible;"
       id="marker4035"
       refX="0.0"
       refY="0.0"
       orient="auto"
       inkscape:stockid="Arrow2Lend"
       inkscape:isstock="true">
      <path
         transform="scale(1.1) rotate(180) translate(1,0)"
         d="M 8.7185878,4.0337352 L -2.2072895,0.016013256 L 8.7185884,-4.0017078 C 6.9730900,-1.6296469 6.9831476,1.6157441 8.7185878,4.0337352 z "
         style="fill-rule:evenodd;stroke-width:0.625;stroke-linejoin:round;stroke:#fb8072;stroke-opacity:1;fill:#fb8072;fill-opacity:1"
         id="path4033" />
    </marker>
    <marker
       style="overflow:visible;"
       id="marker4025"
       refX="0.0"
       refY="0.0"
       orient="auto"
       inkscape:stockid="Arrow2Lend"
       inkscape:isstock="true">
      <path
         transform="scale(1.1) rotate(180) translate(1,0)"
         d="M 8.7185878,4.0337352 L -2.2072895,0.016013256 L 8.7185884,-4.0017078 C 6.9730900,-1.6296469 6.9831476,1.6157441 8.7185878,4.0337352 z "
         style="fill-rule:evenodd;stroke-width:0.625;stroke-linejoin:round;stroke:#fb8072;stroke-opacity:1;fill:#fb8072;fill-opacity:1"
         id="path4023" />
    </marker>
    <marker
       style="overflow:visible;"
       id="marker4015"
       refX="0.0"
       refY="0.0"
       orient="auto"
       inkscape:stockid="Arrow2Lend"
       inkscape:isstock="true">
      <path
         transform="scale(1.1) rotate(180) translate(1,0)"
         d="M 8.7185878,4.0337352 L -2.2072895,0.016013256 L 8.7185884,-4.0017078 C 6.9730900,-1.6296469 6.9831476,1.6157441 8.7185878,4.0337352 z "
         style="fill-rule:evenodd;stroke-width:0.625;stroke-linejoin:round;stroke:#fb8072;stroke-opacity:1;fill:#fb8072;fill-opacity:1"
         id="path4013" />
    </marker>
    <marker
       style="overflow:visible;"
       id="marker4005"
       refX="0.0"
       refY="0.0"
       orient="auto"
       inkscape:stockid="Arrow2Lend"
       inkscape:isstock="true">
      <path
         transform="scale(1.1) rotate(180) translate(1,0)"
         d="M 8.7185878,4.0337352 L -2.2072895,0.016013256 L 8.7185884,-4.0017078 C 6.9730900,-1.6296469 6.9831476,1.6157441 8.7185878,4.0337352 z "
         style="fill-rule:evenodd;stroke-width:0.625;stroke-linejoin:round;stroke:#fb8072;stroke-opacity:1;fill:#fb8072;fill-opacity:1"
         id="path4003" />
    </marker>
    <marker
       style="overflow:visible;"
       id="marker3995"
       refX="0.0"
       refY="0.0"
       orient="auto"
       inkscape:stockid="Arrow2Lend"
       inkscape:isstock="true">
      <path
         transform="scale(1.1) rotate(180) translate(1,0)"
         d="M 8.7185878,4.0337352 L -2.2072895,0.016013256 L 8.7185884,-4.0017078 C 6.9730900,-1.6296469 6.9831476,1.6157441 8.7185878,4.0337352 z "
         style="fill-rule:evenodd;stroke-width:0.625;stroke-linejoin:round;stroke:#fb8072;stroke-opacity:1;fill:#fb8072;fill-opacity:1"
         id="path3993" />
    </marker>
    <marker
       style="overflow:visible;"
       id="marker3985"
       refX="0.0"
       refY="0.0"
       orient="auto"
       inkscape:stockid="Arrow2Lend"
       inkscape:isstock="true">
      <path
         transform="scale(1.1) rotate(180) translate(1,0)"
         d="M 8.7185878,4.0337352 L -2.2072895,0.016013256 L 8.7185884,-4.0017078 C 6.9730900,-1.6296469 6.9831476,1.6157441 8.7185878,4.0337352 z "
         style="fill-rule:evenodd;stroke-width:0.625;stroke-linejoin:round;stroke:#000000;stroke-opacity:1;fill:#000000;fill-opacity:1"
         id="path3983" />
    </marker>
    <marker
       style="overflow:visible;"
       id="marker3975"
       refX="0.0"
       refY="0.0"
       orient="auto"
       inkscape:stockid="Arrow2Lend"
       inkscape:isstock="true">
      <path
         transform="scale(1.1) rotate(180) translate(1,0)"
         d="M 8.7185878,4.0337352 L -2.2072895,0.016013256 L 8.7185884,-4.0017078 C 6.9730900,-1.6296469 6.9831476,1.6157441 8.7185878,4.0337352 z "
         style="fill-rule:evenodd;stroke-width:0.625;stroke-linejoin:round;stroke:#000000;stroke-opacity:1;fill:#000000;fill-opacity:1"
         id="path3973" />
    </marker>
    <marker
       style="overflow:visible;"
       id="marker3965"
       refX="0.0"
       refY="0.0"
       orient="auto"
       inkscape:stockid="Arrow2Lend"
       inkscape:isstock="true">
      <path
         transform="scale(1.1) rotate(180) translate(1,0)"
         d="M 8.7185878,4.0337352 L -2.2072895,0.016013256 L 8.7185884,-4.0017078 C 6.9730900,-1.6296469 6.9831476,1.6157441 8.7185878,4.0337352 z "
         style="fill-rule:evenodd;stroke-width:0.625;stroke-linejoin:round;stroke:#000000;stroke-opacity:1;fill:#000000;fill-opacity:1"
         id="path3963" />
    </marker>
    <marker
       style="overflow:visible;"
       id="marker3955"
       refX="0.0"
       refY="0.0"
       orient="auto"
       inkscape:stockid="Arrow2Lend"
       inkscape:isstock="true">
      <path
         transform="scale(1.1) rotate(180) translate(1,0)"
         d="M 8.7185878,4.0337352 L -2.2072895,0.016013256 L 8.7185884,-4.0017078 C 6.9730900,-1.6296469 6.9831476,1.6157441 8.7185878,4.0337352 z "
         style="fill-rule:evenodd;stroke-width:0.625;stroke-linejoin:round;stroke:#000000;stroke-opacity:1;fill:#000000;fill-opacity:1"
         id="path3953" />
    </marker>
    <marker
       style="overflow:visible;"
       id="marker3945"
       refX="0.0"
       refY="0.0"
       orient="auto"
       inkscape:stockid="Arrow2Lend"
       inkscape:isstock="true">
      <path
         transform="scale(1.1) rotate(180) translate(1,0)"
         d="M 8.7185878,4.0337352 L -2.2072895,0.016013256 L 8.7185884,-4.0017078 C 6.9730900,-1.6296469 6.9831476,1.6157441 8.7185878,4.0337352 z "
         style="fill-rule:evenodd;stroke-width:0.625;stroke-linejoin:round;stroke:#000000;stroke-opacity:1;fill:#000000;fill-opacity:1"
         id="path3943" />
    </marker>
    <marker
       style="overflow:visible;"
       id="marker3935"
       refX="0.0"
       refY="0.0"
       orient="auto"
       inkscape:stockid="Arrow2Lend"
       inkscape:isstock="true">
      <path
         transform="scale(1.1) rotate(180) translate(1,0)"
         d="M 8.7185878,4.0337352 L -2.2072895,0.016013256 L 8.7185884,-4.0017078 C 6.9730900,-1.6296469 6.9831476,1.6157441 8.7185878,4.0337352 z "
         style="fill-rule:evenodd;stroke-width:0.625;stroke-linejoin:round;stroke:#80b1d3;stroke-opacity:1;fill:#80b1d3;fill-opacity:1"
         id="path3933" />
    </marker>
    <marker
       style="overflow:visible;"
       id="marker3925"
       refX="0.0"
       refY="0.0"
       orient="auto"
       inkscape:stockid="Arrow2Lend"
       inkscape:isstock="true">
      <path
         transform="scale(1.1) rotate(180) translate(1,0)"
         d="M 8.7185878,4.0337352 L -2.2072895,0.016013256 L 8.7185884,-4.0017078 C 6.9730900,-1.6296469 6.9831476,1.6157441 8.7185878,4.0337352 z "
         style="fill-rule:evenodd;stroke-width:0.625;stroke-linejoin:round;stroke:#80b1d3;stroke-opacity:1;fill:#80b1d3;fill-opacity:1"
         id="path3923" />
    </marker>
    <marker
       style="overflow:visible;"
       id="marker3915"
       refX="0.0"
       refY="0.0"
       orient="auto"
       inkscape:stockid="Arrow2Lend"
       inkscape:isstock="true">
      <path
         transform="scale(1.1) rotate(180) translate(1,0)"
         d="M 8.7185878,4.0337352 L -2.2072895,0.016013256 L 8.7185884,-4.0017078 C 6.9730900,-1.6296469 6.9831476,1.6157441 8.7185878,4.0337352 z "
         style="fill-rule:evenodd;stroke-width:0.625;stroke-linejoin:round;stroke:#80b1d3;stroke-opacity:1;fill:#80b1d3;fill-opacity:1"
         id="path3913" />
    </marker>
    <marker
       style="overflow:visible;"
       id="marker3905"
       refX="0.0"
       refY="0.0"
       orient="auto"
       inkscape:stockid="Arrow2Lend"
       inkscape:isstock="true">
      <path
         transform="scale(1.1) rotate(180) translate(1,0)"
         d="M 8.7185878,4.0337352 L -2.2072895,0.016013256 L 8.7185884,-4.0017078 C 6.9730900,-1.6296469 6.9831476,1.6157441 8.7185878,4.0337352 z "
         style="fill-rule:evenodd;stroke-width:0.625;stroke-linejoin:round;stroke:#80b1d3;stroke-opacity:1;fill:#80b1d3;fill-opacity:1"
         id="path3903" />
    </marker>
    <marker
       style="overflow:visible;"
       id="marker3895"
       refX="0.0"
       refY="0.0"
       orient="auto"
       inkscape:stockid="Arrow2Lend"
       inkscape:isstock="true">
      <path
         transform="scale(1.1) rotate(180) translate(1,0)"
         d="M 8.7185878,4.0337352 L -2.2072895,0.016013256 L 8.7185884,-4.0017078 C 6.9730900,-1.6296469 6.9831476,1.6157441 8.7185878,4.0337352 z "
         style="fill-rule:evenodd;stroke-width:0.625;stroke-linejoin:round;stroke:#80b1d3;stroke-opacity:1;fill:#80b1d3;fill-opacity:1"
         id="path3893" />
    </marker>
    <marker
       style="overflow:visible;"
       id="marker3885"
       refX="0.0"
       refY="0.0"
       orient="auto"
       inkscape:stockid="Arrow2Lend"
       inkscape:isstock="true">
      <path
         transform="scale(1.1) rotate(180) translate(1,0)"
         d="M 8.7185878,4.0337352 L -2.2072895,0.016013256 L 8.7185884,-4.0017078 C 6.9730900,-1.6296469 6.9831476,1.6157441 8.7185878,4.0337352 z "
         style="fill-rule:evenodd;stroke-width:0.625;stroke-linejoin:round;stroke:#80b1d3;stroke-opacity:1;fill:#80b1d3;fill-opacity:1"
         id="path3883" />
    </marker>
    <marker
       style="overflow:visible"
       id="marker1721"
       refX="0.0"
       refY="0.0"
       orient="auto"
       inkscape:stockid="Arrow2Lstart"
       inkscape:isstock="true">
      <path
         transform="scale(1.1) translate(1,0)"
         d="M 8.7185878,4.0337352 L -2.2072895,0.016013256 L 8.7185884,-4.0017078 C 6.9730900,-1.6296469 6.9831476,1.6157441 8.7185878,4.0337352 z "
         style="fill-rule:evenodd;stroke-width:0.625;stroke-linejoin:round;stroke:#000000;stroke-opacity:1;fill:#ffffff;fill-opacity:1"
         id="path1719" />
    </marker>
    <marker
       style="overflow:visible"
       id="marker1711"
       refX="0.0"
       refY="0.0"
       orient="auto"
       inkscape:stockid="Arrow2Lstart"
       inkscape:isstock="true">
      <path
         transform="scale(1.1) translate(1,0)"
         d="M 8.7185878,4.0337352 L -2.2072895,0.016013256 L 8.7185884,-4.0017078 C 6.9730900,-1.6296469 6.9831476,1.6157441 8.7185878,4.0337352 z "
         style="fill-rule:evenodd;stroke-width:0.625;stroke-linejoin:round;stroke:#000000;stroke-opacity:1;fill:#ffffff;fill-opacity:1"
         id="path1709" />
    </marker>
    <marker
       style="overflow:visible"
       id="marker1701"
       refX="0.0"
       refY="0.0"
       orient="auto"
       inkscape:stockid="Arrow2Lstart"
       inkscape:isstock="true">
      <path
         transform="scale(1.1) translate(1,0)"
         d="M 8.7185878,4.0337352 L -2.2072895,0.016013256 L 8.7185884,-4.0017078 C 6.9730900,-1.6296469 6.9831476,1.6157441 8.7185878,4.0337352 z "
         style="fill-rule:evenodd;stroke-width:0.625;stroke-linejoin:round;stroke:#000000;stroke-opacity:1;fill:#ffffff;fill-opacity:1"
         id="path1699" />
    </marker>
    <marker
       style="overflow:visible"
       id="marker1691"
       refX="0.0"
       refY="0.0"
       orient="auto"
       inkscape:stockid="Arrow2Lstart"
       inkscape:isstock="true">
      <path
         transform="scale(1.1) translate(1,0)"
         d="M 8.7185878,4.0337352 L -2.2072895,0.016013256 L 8.7185884,-4.0017078 C 6.9730900,-1.6296469 6.9831476,1.6157441 8.7185878,4.0337352 z "
         style="fill-rule:evenodd;stroke-width:0.625;stroke-linejoin:round;stroke:#000000;stroke-opacity:1;fill:#ffffff;fill-opacity:1"
         id="path1689" />
    </marker>
    <marker
       style="overflow:visible"
       id="marker1681"
       refX="0.0"
       refY="0.0"
       orient="auto"
       inkscape:stockid="Arrow2Lstart"
       inkscape:isstock="true">
      <path
         transform="scale(1.1) translate(1,0)"
         d="M 8.7185878,4.0337352 L -2.2072895,0.016013256 L 8.7185884,-4.0017078 C 6.9730900,-1.6296469 6.9831476,1.6157441 8.7185878,4.0337352 z "
         style="fill-rule:evenodd;stroke-width:0.625;stroke-linejoin:round;stroke:#000000;stroke-opacity:1;fill:#000000;fill-opacity:1"
         id="path1679" />
    </marker>
    <marker
       style="overflow:visible"
       id="marker1671"
       refX="0.0"
       refY="0.0"
       orient="auto"
       inkscape:stockid="Arrow2Lstart"
       inkscape:isstock="true">
      <path
         transform="scale(1.1) translate(1,0)"
         d="M 8.7185878,4.0337352 L -2.2072895,0.016013256 L 8.7185884,-4.0017078 C 6.9730900,-1.6296469 6.9831476,1.6157441 8.7185878,4.0337352 z "
         style="fill-rule:evenodd;stroke-width:0.625;stroke-linejoin:round;stroke:#000000;stroke-opacity:1;fill:#000000;fill-opacity:1"
         id="path1669" />
    </marker>
    <marker
       style="overflow:visible"
       id="marker1661"
       refX="0.0"
       refY="0.0"
       orient="auto"
       inkscape:stockid="Arrow2Lstart"
       inkscape:isstock="true">
      <path
         transform="scale(1.1) translate(1,0)"
         d="M 8.7185878,4.0337352 L -2.2072895,0.016013256 L 8.7185884,-4.0017078 C 6.9730900,-1.6296469 6.9831476,1.6157441 8.7185878,4.0337352 z "
         style="fill-rule:evenodd;stroke-width:0.625;stroke-linejoin:round;stroke:#000000;stroke-opacity:1;fill:#000000;fill-opacity:1"
         id="path1659" />
    </marker>
    <marker
       style="overflow:visible"
       id="marker1651"
       refX="0.0"
       refY="0.0"
       orient="auto"
       inkscape:stockid="Arrow2Lstart"
       inkscape:isstock="true">
      <path
         transform="scale(1.1) translate(1,0)"
         d="M 8.7185878,4.0337352 L -2.2072895,0.016013256 L 8.7185884,-4.0017078 C 6.9730900,-1.6296469 6.9831476,1.6157441 8.7185878,4.0337352 z "
         style="fill-rule:evenodd;stroke-width:0.625;stroke-linejoin:round;stroke:#000000;stroke-opacity:1;fill:#000000;fill-opacity:1"
         id="path1649" />
    </marker>
    <marker
       style="overflow:visible"
       id="marker1641"
       refX="0.0"
       refY="0.0"
       orient="auto"
       inkscape:stockid="Arrow2Lstart"
       inkscape:isstock="true">
      <path
         transform="scale(1.1) translate(1,0)"
         d="M 8.7185878,4.0337352 L -2.2072895,0.016013256 L 8.7185884,-4.0017078 C 6.9730900,-1.6296469 6.9831476,1.6157441 8.7185878,4.0337352 z "
         style="fill-rule:evenodd;stroke-width:0.625;stroke-linejoin:round;stroke:#000000;stroke-opacity:1;fill:#000000;fill-opacity:1"
         id="path1639" />
    </marker>
    <marker
       style="overflow:visible"
       id="marker1631"
       refX="0.0"
       refY="0.0"
       orient="auto"
       inkscape:stockid="Arrow2Lstart"
       inkscape:isstock="true">
      <path
         transform="scale(1.1) translate(1,0)"
         d="M 8.7185878,4.0337352 L -2.2072895,0.016013256 L 8.7185884,-4.0017078 C 6.9730900,-1.6296469 6.9831476,1.6157441 8.7185878,4.0337352 z "
         style="fill-rule:evenodd;stroke-width:0.625;stroke-linejoin:round;stroke:#000000;stroke-opacity:1;fill:#000000;fill-opacity:1"
         id="path1629" />
    </marker>
    <marker
       style="overflow:visible"
       id="marker1621"
       refX="0.0"
       refY="0.0"
       orient="auto"
       inkscape:stockid="Arrow2Lstart"
       inkscape:isstock="true">
      <path
         transform="scale(1.1) translate(1,0)"
         d="M 8.7185878,4.0337352 L -2.2072895,0.016013256 L 8.7185884,-4.0017078 C 6.9730900,-1.6296469 6.9831476,1.6157441 8.7185878,4.0337352 z "
         style="fill-rule:evenodd;stroke-width:0.625;stroke-linejoin:round;stroke:#000000;stroke-opacity:1;fill:#000000;fill-opacity:1"
         id="path1619" />
    </marker>
    <marker
       style="overflow:visible"
       id="marker1611"
       refX="0.0"
       refY="0.0"
       orient="auto"
       inkscape:stockid="Arrow2Lstart"
       inkscape:isstock="true">
      <path
         transform="scale(1.1) translate(1,0)"
         d="M 8.7185878,4.0337352 L -2.2072895,0.016013256 L 8.7185884,-4.0017078 C 6.9730900,-1.6296469 6.9831476,1.6157441 8.7185878,4.0337352 z "
         style="fill-rule:evenodd;stroke-width:0.625;stroke-linejoin:round;stroke:#000000;stroke-opacity:1;fill:#000000;fill-opacity:1"
         id="path1609" />
    </marker>
    <marker
       style="overflow:visible"
       id="marker1601"
       refX="0.0"
       refY="0.0"
       orient="auto"
       inkscape:stockid="Arrow2Lstart"
       inkscape:isstock="true">
      <path
         transform="scale(1.1) translate(1,0)"
         d="M 8.7185878,4.0337352 L -2.2072895,0.016013256 L 8.7185884,-4.0017078 C 6.9730900,-1.6296469 6.9831476,1.6157441 8.7185878,4.0337352 z "
         style="fill-rule:evenodd;stroke-width:0.625;stroke-linejoin:round;stroke:#000000;stroke-opacity:1;fill:#000000;fill-opacity:1"
         id="path1599" />
    </marker>
    <marker
       style="overflow:visible"
       id="marker1591"
       refX="0.0"
       refY="0.0"
       orient="auto"
       inkscape:stockid="Arrow2Lstart"
       inkscape:isstock="true">
      <path
         transform="scale(1.1) translate(1,0)"
         d="M 8.7185878,4.0337352 L -2.2072895,0.016013256 L 8.7185884,-4.0017078 C 6.9730900,-1.6296469 6.9831476,1.6157441 8.7185878,4.0337352 z "
         style="fill-rule:evenodd;stroke-width:0.625;stroke-linejoin:round;stroke:#000000;stroke-opacity:1;fill:#000000;fill-opacity:1"
         id="path1589" />
    </marker>
    <marker
       style="overflow:visible"
       id="marker1581"
       refX="0.0"
       refY="0.0"
       orient="auto"
       inkscape:stockid="Arrow2Lstart"
       inkscape:isstock="true">
      <path
         transform="scale(1.1) translate(1,0)"
         d="M 8.7185878,4.0337352 L -2.2072895,0.016013256 L 8.7185884,-4.0017078 C 6.9730900,-1.6296469 6.9831476,1.6157441 8.7185878,4.0337352 z "
         style="fill-rule:evenodd;stroke-width:0.625;stroke-linejoin:round;stroke:#000000;stroke-opacity:1;fill:#000000;fill-opacity:1"
         id="path1579" />
    </marker>
    <marker
       style="overflow:visible"
       id="marker1571"
       refX="0.0"
       refY="0.0"
       orient="auto"
       inkscape:stockid="Arrow2Lstart"
       inkscape:isstock="true">
      <path
         transform="scale(1.1) translate(1,0)"
         d="M 8.7185878,4.0337352 L -2.2072895,0.016013256 L 8.7185884,-4.0017078 C 6.9730900,-1.6296469 6.9831476,1.6157441 8.7185878,4.0337352 z "
         style="fill-rule:evenodd;stroke-width:0.625;stroke-linejoin:round;stroke:#000000;stroke-opacity:1;fill:#000000;fill-opacity:1"
         id="path1569" />
    </marker>
    <marker
       style="overflow:visible"
       id="marker1561"
       refX="0.0"
       refY="0.0"
       orient="auto"
       inkscape:stockid="Arrow2Lstart"
       inkscape:isstock="true">
      <path
         transform="scale(1.1) translate(1,0)"
         d="M 8.7185878,4.0337352 L -2.2072895,0.016013256 L 8.7185884,-4.0017078 C 6.9730900,-1.6296469 6.9831476,1.6157441 8.7185878,4.0337352 z "
         style="fill-rule:evenodd;stroke-width:0.625;stroke-linejoin:round;stroke:#000000;stroke-opacity:1;fill:#000000;fill-opacity:1"
         id="path1559" />
    </marker>
    <marker
       style="overflow:visible"
       id="marker1551"
       refX="0.0"
       refY="0.0"
       orient="auto"
       inkscape:stockid="Arrow2Lstart"
       inkscape:isstock="true">
      <path
         transform="scale(1.1) translate(1,0)"
         d="M 8.7185878,4.0337352 L -2.2072895,0.016013256 L 8.7185884,-4.0017078 C 6.9730900,-1.6296469 6.9831476,1.6157441 8.7185878,4.0337352 z "
         style="fill-rule:evenodd;stroke-width:0.625;stroke-linejoin:round;stroke:#000000;stroke-opacity:1;fill:#000000;fill-opacity:1"
         id="path1549" />
    </marker>
    <marker
       style="overflow:visible"
       id="marker1541"
       refX="0.0"
       refY="0.0"
       orient="auto"
       inkscape:stockid="Arrow2Lstart"
       inkscape:isstock="true">
      <path
         transform="scale(1.1) translate(1,0)"
         d="M 8.7185878,4.0337352 L -2.2072895,0.016013256 L 8.7185884,-4.0017078 C 6.9730900,-1.6296469 6.9831476,1.6157441 8.7185878,4.0337352 z "
         style="fill-rule:evenodd;stroke-width:0.625;stroke-linejoin:round;stroke:#000000;stroke-opacity:1;fill:#000000;fill-opacity:1"
         id="path1539" />
    </marker>
    <marker
       style="overflow:visible"
       id="marker1531"
       refX="0.0"
       refY="0.0"
       orient="auto"
       inkscape:stockid="Arrow2Lstart"
       inkscape:isstock="true">
      <path
         transform="scale(1.1) translate(1,0)"
         d="M 8.7185878,4.0337352 L -2.2072895,0.016013256 L 8.7185884,-4.0017078 C 6.9730900,-1.6296469 6.9831476,1.6157441 8.7185878,4.0337352 z "
         style="fill-rule:evenodd;stroke-width:0.625;stroke-linejoin:round;stroke:#000000;stroke-opacity:1;fill:#000000;fill-opacity:1"
         id="path1529" />
    </marker>
    <marker
       style="overflow:visible"
       id="marker1521"
       refX="0.0"
       refY="0.0"
       orient="auto"
       inkscape:stockid="Arrow2Lstart"
       inkscape:isstock="true">
      <path
         transform="scale(1.1) translate(1,0)"
         d="M 8.7185878,4.0337352 L -2.2072895,0.016013256 L 8.7185884,-4.0017078 C 6.9730900,-1.6296469 6.9831476,1.6157441 8.7185878,4.0337352 z "
         style="fill-rule:evenodd;stroke-width:0.625;stroke-linejoin:round;stroke:#000000;stroke-opacity:1;fill:#000000;fill-opacity:1"
         id="path1519" />
    </marker>
    <rect
       x="97.365044"
       y="57.899483"
       width="13.159242"
       height="6.3507175"
       id="rect4866-1" />
    <rect
       x="97.365044"
       y="57.899483"
       width="13.159242"
       height="6.3507175"
       id="rect5533" />
    <rect
       x="97.365044"
       y="57.899483"
       width="18.106372"
       height="7.992935"
       id="rect4866-1-7" />
    <rect
       x="97.365044"
       y="57.899483"
       width="13.159242"
       height="6.3507175"
       id="rect5562" />
    <rect
       x="97.365044"
       y="57.899483"
       width="13.159242"
       height="6.3507175"
       id="rect4866-9" />
    <rect
       x="97.365044"
       y="57.899483"
       width="13.159242"
       height="6.3507175"
       id="rect5592" />
    <rect
       x="97.365044"
       y="57.899483"
       width="13.159242"
       height="6.3507175"
       id="rect4866-9-2" />
    <rect
       x="97.365044"
       y="57.899483"
       width="13.159242"
       height="6.3507175"
       id="rect5637" />
    <rect
       x="97.365044"
       y="57.899483"
       width="13.159242"
       height="6.3507175"
       id="rect4866-9-2-1" />
    <rect
       x="97.365044"
       y="57.899483"
       width="13.159242"
       height="6.3507175"
       id="rect5667" />
    <rect
       x="97.365044"
       y="57.899483"
       width="13.159242"
       height="6.3507175"
       id="rect4866-9-2-1-7" />
    <rect
       x="97.365044"
       y="57.899483"
       width="13.159242"
       height="6.3507175"
       id="rect5697" />
    <rect
       x="97.365044"
       y="57.899483"
       width="13.159242"
       height="6.3507175"
       id="rect4866-9-2-1-2" />
    <rect
       x="97.365044"
       y="57.899483"
       width="13.159242"
       height="6.3507175"
       id="rect5697-0" />
    <rect
       x="97.365044"
       y="57.899483"
       width="13.159242"
       height="6.3507175"
       id="rect4866-9-2-1-3" />
    <rect
       x="97.365044"
       y="57.899483"
       width="13.159242"
       height="6.3507175"
       id="rect5697-7" />
    <rect
       x="97.365044"
       y="57.899483"
       width="13.159242"
       height="6.3507175"
       id="rect6186" />
  </defs>
  <sodipodi:namedview
     id="base"
     pagecolor="#ffffff"
     bordercolor="#666666"
     borderopacity="1.0"
     inkscape:pageopacity="0.0"
     inkscape:pageshadow="2"
     inkscape:zoom="1.979899"
     inkscape:cx="256.17184"
     inkscape:cy="313.61583"
     inkscape:document-units="mm"
     inkscape:current-layer="layer1"
     inkscape:document-rotation="0"
     showgrid="true"
     inkscape:snap-bbox="true"
     inkscape:bbox-nodes="true"
     inkscape:snap-nodes="true"
     inkscape:snap-others="false"
     inkscape:snap-global="false"
     inkscape:object-nodes="false"
     inkscape:window-width="1366"
     inkscape:window-height="704"
     inkscape:window-x="0"
     inkscape:window-y="27"
     inkscape:window-maximized="1">
    <inkscape:grid
       type="xygrid"
       id="grid833"
       dotted="false" />
  </sodipodi:namedview>
  <metadata
     id="metadata5">
    <rdf:RDF>
      <cc:Work
         rdf:about="">
        <dc:format>image/svg+xml</dc:format>
        <dc:type
           rdf:resource="http://purl.org/dc/dcmitype/StillImage" />
        <dc:title />
      </cc:Work>
    </rdf:RDF>
  </metadata>
  <g
     inkscape:label="Layer 1"
     inkscape:groupmode="layer"
     id="layer1">
    <path
       id="path1214"
       style="fill:none;stroke:#80b1d3;stroke-width:0.62362206;stroke-linecap:butt;stroke-linejoin:miter;stroke-opacity:1;marker-end:url(#marker3885);stroke-miterlimit:4;stroke-dasharray:none"
       d="M 315 315 L 379.55105 245.83815 "
       transform="scale(0.26458333)" />
    <path
       id="path1210"
       style="fill:none;stroke:#80b1d3;stroke-width:0.62362206;stroke-linecap:butt;stroke-linejoin:miter;stroke-opacity:1;marker-end:url(#marker3895);stroke-miterlimit:4;stroke-dasharray:none"
       d="M 315 315 L 378.28162 274.31895 "
       transform="scale(0.26458333)" />
    <path
       id="path1206"
       style="fill:none;stroke:#80b1d3;stroke-width:0.62362206;stroke-linecap:butt;stroke-linejoin:miter;stroke-opacity:1;marker-end:url(#marker3905);stroke-miterlimit:4;stroke-dasharray:none"
       d="M 315 315 L 377.19128 301.67329 "
       transform="scale(0.26458333)" />
    <path
       id="path1202"
       style="fill:none;stroke:#80b1d3;stroke-width:0.62362206;stroke-linecap:butt;stroke-linejoin:miter;stroke-opacity:1;marker-end:url(#marker3915);stroke-miterlimit:4;stroke-dasharray:none"
       d="M 315 315 L 377.18941 328.3263 "
       transform="scale(0.26458333)" />
    <path
       id="path1198"
       style="fill:none;stroke:#80b1d3;stroke-width:0.62362206;stroke-linecap:butt;stroke-linejoin:miter;stroke-opacity:1;marker-end:url(#marker3925);stroke-miterlimit:4;stroke-dasharray:none"
       d="M 315 315 L 378.28162 355.68104 "
       transform="scale(0.26458333)" />
    <path
       id="path1194"
       style="fill:none;stroke:#80b1d3;stroke-width:0.62362206;stroke-linecap:butt;stroke-linejoin:miter;stroke-opacity:1;marker-end:url(#marker3935);stroke-miterlimit:4;stroke-dasharray:none"
       d="M 315 315 L 379.55105 384.16185 "
       transform="scale(0.26458333)" />
    <path
       id="path1190"
       style="fill:none;stroke:#fb8072;stroke-width:0.62362206;stroke-linecap:butt;stroke-linejoin:miter;stroke-opacity:1;marker-end:url(#marker3995);stroke-miterlimit:4;stroke-dasharray:none"
       d="M 455.00001 315 L 390.44893 384.16185 "
       transform="scale(0.26458333)" />
    <path
       id="path1186"
       style="fill:none;stroke:#fb8072;stroke-width:0.62362206;stroke-linecap:butt;stroke-linejoin:miter;stroke-opacity:1;marker-end:url(#marker4005);stroke-miterlimit:4;stroke-dasharray:none"
       d="M 455.00001 315 L 391.71836 355.68104 "
       transform="scale(0.26458333)" />
    <path
       id="path1182"
       style="fill:none;stroke:#fb8072;stroke-width:0.62362206;stroke-linecap:butt;stroke-linejoin:miter;stroke-opacity:1;marker-end:url(#marker4015);stroke-miterlimit:4;stroke-dasharray:none"
       d="M 455.00001 315 L 392.8087 328.3267 "
       transform="scale(0.26458333)" />
    <path
       id="path1178"
       style="fill:none;stroke:#fb8072;stroke-width:0.62362206;stroke-linecap:butt;stroke-linejoin:miter;stroke-opacity:1;marker-end:url(#marker4025);stroke-miterlimit:4;stroke-dasharray:none"
       d="M 455.00001 315 L 392.81057 301.67369 "
       transform="scale(0.26458333)" />
    <path
       id="path1174"
       style="fill:none;stroke:#fb8072;stroke-width:0.62362206;stroke-linecap:butt;stroke-linejoin:miter;stroke-opacity:1;marker-end:url(#marker4035);stroke-miterlimit:4;stroke-dasharray:none"
       d="M 455.00001 315 L 391.71836 274.31895 "
       transform="scale(0.26458333)" />
    <path
       id="path1170"
       style="fill:none;stroke:#fb8072;stroke-width:0.62362206;stroke-linecap:butt;stroke-linejoin:miter;stroke-opacity:1;marker-end:url(#marker4045);stroke-miterlimit:4;stroke-dasharray:none"
       d="M 455.00001 315 L 390.44893 245.83815 "
       transform="scale(0.26458333)" />
    <path
       id="path1166"
       style="fill:none;stroke:#000000;stroke-width:0.62362206;stroke-linecap:butt;stroke-linejoin:miter;stroke-opacity:1;marker-end:url(#marker3945);stroke-miterlimit:4;stroke-dasharray:none"
       d="M 384.99999 367.98828 L 384.99999 382.01172 "
       transform="scale(0.26458333)" />
    <path
       id="path1162"
       style="fill:none;stroke:#000000;stroke-width:0.62362206;stroke-linecap:butt;stroke-linejoin:miter;stroke-opacity:1;marker-end:url(#marker3955);stroke-miterlimit:4;stroke-dasharray:none"
       d="M 385 337.98829 L 384.99999 352.01172 "
       transform="scale(0.26458333)" />
    <path
       id="path1158"
       style="fill:none;stroke:#000000;stroke-width:0.62362206;stroke-linecap:butt;stroke-linejoin:miter;stroke-opacity:1;marker-end:url(#marker3965);stroke-miterlimit:4;stroke-dasharray:none"
       d="M 384.99998 307.98827 L 384.99999 322.01171 "
       transform="scale(0.26458333)" />
    <path
       id="path1154"
       style="fill:none;stroke:#000000;stroke-width:0.62362206;stroke-linecap:butt;stroke-linejoin:miter;stroke-opacity:1;marker-end:url(#marker3975);stroke-miterlimit:4;stroke-dasharray:none"
       d="M 384.99999 277.98828 L 385 292.01172 "
       transform="scale(0.26458333)" />
    <path
       id="path1150"
       style="fill:none;stroke:#000000;stroke-width:0.62362206;stroke-linecap:butt;stroke-linejoin:miter;stroke-opacity:1;marker-end:url(#marker3985);stroke-miterlimit:4;stroke-dasharray:none"
       d="M 384.99999 247.98828 L 384.99999 262.01172 "
       transform="scale(0.26458333)" />
    <path
       style="fill:#ffffff;fill-opacity:1;stroke:#000000;stroke-width:0.349999;stroke-miterlimit:4;stroke-dasharray:none;stop-color:#000000"
       d="m 104.03506,63.576132 a 2.1133375,2.1133382 0 0 1 -2.11333,2.113338 2.1133375,2.1133382 0 0 1 -2.113321,-2.113338 2.1133375,2.1133382 0 0 1 2.113321,-2.113338 2.1133375,2.1133382 0 0 1 2.11333,2.113338 z"
       id="path1233" />
    <path
       style="fill:#ffffff;fill-opacity:1;stroke:#000000;stroke-width:0.349999;stroke-miterlimit:4;stroke-dasharray:none;stop-color:#000000"
       d="m 104.03506,71.513632 a 2.1133375,2.1133387 0 0 1 -2.11333,2.113339 2.1133375,2.1133387 0 0 1 -2.113321,-2.113339 2.1133375,2.1133387 0 0 1 2.113321,-2.113339 2.1133375,2.1133387 0 0 1 2.11333,2.113339 z"
       id="path1231" />
    <path
       style="fill:#ffffff;fill-opacity:1;stroke:#000000;stroke-width:0.349999;stroke-miterlimit:4;stroke-dasharray:none;stop-color:#000000"
       d="m 104.03506,79.451132 a 2.1133375,2.1133375 0 0 1 -2.11333,2.113338 2.1133375,2.1133375 0 0 1 -2.113321,-2.113338 2.1133375,2.1133375 0 0 1 2.113321,-2.113338 2.1133375,2.1133375 0 0 1 2.11333,2.113338 z"
       id="path1229" />
    <path
       style="fill:#ffffff;fill-opacity:1;stroke:#000000;stroke-width:0.349999;stroke-miterlimit:4;stroke-dasharray:none;stop-color:#000000"
       d="m 104.03507,87.388628 a 2.1133375,2.1133375 0 0 1 -2.11334,2.11334 2.1133375,2.1133375 0 0 1 -2.113311,-2.11334 2.1133375,2.1133375 0 0 1 2.113311,-2.11333 2.1133375,2.1133375 0 0 1 2.11334,2.11333 z"
       id="path1227" />
    <path
       style="fill:#ffffff;fill-opacity:1;stroke:#000000;stroke-width:0.349999;stroke-miterlimit:4;stroke-dasharray:none;stop-color:#000000"
       d="m 104.03506,95.326138 a 2.1133375,2.1133375 0 0 1 -2.11333,2.113331 2.1133375,2.1133375 0 0 1 -2.113321,-2.113331 2.1133375,2.1133375 0 0 1 2.113321,-2.11334 2.1133375,2.1133375 0 0 1 2.11333,2.11334 z"
       id="path1225" />
    <path
       style="fill:#ffffff;fill-opacity:1;stroke:#000000;stroke-width:0.349999;stroke-miterlimit:4;stroke-dasharray:none;stop-color:#000000"
       d="m 104.03506,103.26363 a 2.1133375,2.1133375 0 0 1 -2.11333,2.11334 2.1133375,2.1133375 0 0 1 -2.113321,-2.11334 2.1133375,2.1133375 0 0 1 2.113321,-2.11335 2.1133375,2.1133375 0 0 1 2.11333,2.11335 z"
       id="path842-3-6-7-3" />
    <path
       id="path842-3-6-56"
       style="fill:#ffffff;fill-opacity:1;stroke:#80b1d3;stroke-width:0.349999;stop-color:#000000;font-variation-settings:normal;opacity:1;vector-effect:none;stroke-linecap:butt;stroke-linejoin:miter;stroke-miterlimit:4;stroke-dasharray:none;stroke-dashoffset:0;stroke-opacity:1;stop-opacity:1"
       d="M 85.457088,83.34375 A 2.1133375,2.1133375 0 0 1 83.34375,85.457088 2.1133375,2.1133375 0 0 1 81.230412,83.34375 2.1133375,2.1133375 0 0 1 83.34375,81.230412 2.1133375,2.1133375 0 0 1 85.457088,83.34375 Z" />
    <path
       id="path842-3-6-56-2"
       style="fill:#ffffff;fill-opacity:1;stroke:#fb8072;stroke-width:0.349999;stop-color:#000000;font-variation-settings:normal;opacity:1;vector-effect:none;stroke-linecap:butt;stroke-linejoin:miter;stroke-miterlimit:4;stroke-dasharray:none;stroke-dashoffset:0;stroke-opacity:1;stop-opacity:1"
       d="m 122.49874,83.34375 a 2.1133375,2.1133375 0 0 1 -2.11333,2.113338 2.1133375,2.1133375 0 0 1 -2.11334,-2.113338 2.1133375,2.1133375 0 0 1 2.11334,-2.113338 2.1133375,2.1133375 0 0 1 2.11333,2.113338 z" />
    <text
       xml:space="preserve"
       id="text4864"
       style="font-size:2.82222px;line-height:1.25;font-family:sans-serif;white-space:pre;shape-inside:url(#rect4866);fill:#000000;"
       transform="translate(-0.39443075,-0.83136768)"><tspan
         x="97.365234"
         y="60.397394"><tspan
           style="fill:#000000">Months</tspan></tspan></text>
    <text
       xml:space="preserve"
       id="text4864-2"
       style="font-size:2.82222px;line-height:1.25;font-family:sans-serif;white-space:pre;shape-inside:url(#rect4866-1);fill:#0000ff;"
       transform="translate(-19.719355,14.672268)"><tspan
         x="97.365234"
         y="60.397394"><tspan
           style="fill:#0000ff">Normal</tspan></tspan></text>
    <text
       xml:space="preserve"
       id="text4864-2-0"
       style="font-size:2.82222px;line-height:1.25;font-family:sans-serif;white-space:pre;shape-inside:url(#rect4866-1-7);fill:#fb8072;fill-opacity:1;"
       transform="translate(16.540575,14.785744)"><tspan
         x="97.365234"
         y="60.397394"><tspan
           style="fill:#fb8072;fill-opacity:1">Overtime</tspan></tspan></text>
    <text
       xml:space="preserve"
       id="text4864-3"
       style="font-size:2.82222px;line-height:1.25;font-family:sans-serif;white-space:pre;shape-inside:url(#rect4866-9);fill:#000000;"
       transform="translate(3.6557526,4.1472631)"><tspan
         x="97.365234"
         y="60.397394"><tspan>1
</tspan></tspan></text>
    <text
       xml:space="preserve"
       id="text4864-3-6"
       style="font-size:2.82222px;line-height:1.25;font-family:sans-serif;white-space:pre;shape-inside:url(#rect4866-9-2);fill:#000000;"
       transform="translate(3.691926,12.046832)"><tspan
         x="97.365234"
         y="60.397394"><tspan>2</tspan></tspan></text>
    <text
       xml:space="preserve"
       id="text4864-3-6-8"
       style="font-size:2.82222px;line-height:1.25;font-family:sans-serif;white-space:pre;shape-inside:url(#rect4866-9-2-1);fill:#000000;"
       transform="translate(3.7374261,20.06622)"><tspan
         x="97.365234"
         y="60.397394"><tspan>3</tspan></tspan></text>
    <text
       xml:space="preserve"
       id="text4864-3-6-8-9"
       style="font-size:2.82222px;line-height:1.25;font-family:sans-serif;white-space:pre;shape-inside:url(#rect4866-9-2-1-7);fill:#000000;"
       transform="translate(3.5752237,27.92082)"><tspan
         x="97.365234"
         y="60.397394"><tspan>4
</tspan></tspan></text>
    <text
       xml:space="preserve"
       id="text4864-3-6-8-2"
       style="font-size:2.82222px;line-height:1.25;font-family:sans-serif;white-space:pre;shape-inside:url(#rect4866-9-2-1-2);fill:#000000;"
       transform="translate(3.6921372,35.994732)"><tspan
         x="97.365234"
         y="60.397394"><tspan>5</tspan></tspan></text>
    <text
       xml:space="preserve"
       id="text4864-3-6-8-5"
       style="font-size:2.82222px;line-height:1.25;font-family:sans-serif;white-space:pre;shape-inside:url(#rect4866-9-2-1-3);fill:#000000;"
       transform="translate(3.6070702,43.991625)"><tspan
         x="97.365234"
         y="60.397394"><tspan>6</tspan></tspan></text>
    <text
       xml:space="preserve"
       id="text6184"
       style="font-size:2.82222px;line-height:1.25;font-family:sans-serif;white-space:pre;shape-inside:url(#rect6186);fill:#80b1d3;fill-opacity:1;"
       transform="translate(-19.719355,14.672268)"><tspan
         x="97.365234"
         y="60.397394"><tspan
           style="fill:#80b1d3;fill-opacity:1">Normal</tspan></tspan></text>
  </g>
</svg>
